# xmcd CD database file
#
# Track frame offsets:
#	150
#	15521
#	27757
#	47714
#	62615
#	79920
#	93817
#	102854
#	119301
#	144073
#	157143
#	169870
#	187803
#	204357
#	214924
#	227003
#	244109
#	258401
#	277031
#	286778
#
# Disc length: 4064 seconds
#
# Revision: 11
# Processed by: cddbd v1.5.2PL0 Copyright (c) Steve Scherf et al.
# Submitted via: CDex 1.51
#
DISCID=090fde14
DTITLE=Various Artist - All Jazz  (Gypsy Jazz)  [CD 4-5]
DYEAR=2007
DGENRE=Jazz
TTITLE0=Django Reinhardt Feat. S.Grappelli - Chicago
TTITLE1=Bireli Lagrene - Blues Clair
TTITLE2=Tchavolo Schmitt - All Of Me
TTITLE3=Didier Lockwood - I Got Rhythm
TTITLE4=Stephane Grappelli - Sweet Chorus (Live In Paris 1992)
TTITLE5=Romane - Danube
TTITLE6=Frederic Belinsky - Latsceben
TTITLE7=Daniel Givone - Petite Reine
TTITLE8=Rodolphe Raffalli - Chanson Pour L'auvergnat
TTITLE9=Francis Alfred Moerman - Nuits De Nador
TTITLE10=Moreno - Nous Les Amoureux
TTITLE11=Hot Club USA - Stompin's At Decca
TTITLE12=Fapy Lafertin Quintet - Fleur De Lavande
TTITLE13=Ninine Garcia - Nil Swing
TTITLE14=Am Katenes - I'll Close My Eyes
TTITLE15=Trio Givone - Angera
TTITLE16=Daniel Collin - Jacqueline
TTITLE17=Romane and Stochelo Rosenberg - La Promenade
TTITLE18=Patrick Saussois and Alma Sinti - Just For One Babik
TTITLE19=Syvain Luc and Bireli Lagrene - Isn't She Lovely
EXTD=YEAR: 2007
EXTT0=
EXTT1=
EXTT2=
EXTT3=
EXTT4=
EXTT5=
EXTT6=
EXTT7=
EXTT8=
EXTT9=
EXTT10=
EXTT11=
EXTT12=
EXTT13=
EXTT14=
EXTT15=
EXTT16=
EXTT17=
EXTT18=
EXTT19=
PLAYORDER=
